# Blender v3.1.2 OBJ File: 'cursor.blend'
# www.blender.org
mtllib cursor.mtl
o Cursor_Circle
v 0.000000 0.000000 -50.000000
v -9.754517 0.000000 -49.039261
v -19.134172 0.000000 -46.193974
v -27.778513 0.000000 -41.573479
v -35.355339 0.000000 -35.355339
v -41.573479 0.000000 -27.778513
v -46.193974 0.000000 -19.134171
v -49.039261 0.000000 -9.754518
v -50.000000 0.000000 0.000002
v -49.039261 0.000000 9.754517
v -46.193977 0.000000 19.134171
v -41.573483 0.000000 27.778509
v -35.355339 0.000000 35.355339
v -27.778509 0.000000 41.573483
v -19.134174 0.000000 46.193974
v -9.754516 0.000000 49.039265
v 0.000004 0.000000 50.000000
v 9.754513 0.000000 49.039265
v 19.134171 0.000000 46.193974
v 27.778515 0.000000 41.573479
v 35.355335 0.000000 35.355343
v 41.573475 0.000000 27.778521
v 46.193974 0.000000 19.134178
v 49.039261 0.000000 9.754519
v 50.000000 0.000000 -0.000001
v 49.039261 0.000000 -9.754520
v 46.193974 0.000000 -19.134180
v 41.573486 0.000000 -27.778503
v 35.355343 0.000000 -35.355335
v 27.778515 0.000000 -41.573479
v 19.134171 0.000000 -46.193977
v 9.754512 0.000000 -49.039265
v 0.000000 0.000000 -63.867115
v -12.459856 0.000000 -62.639927
v -24.440889 0.000000 -59.005516
v -35.482670 0.000000 -53.103565
v -45.160870 0.000000 -45.160870
v -53.103565 0.000000 -35.482670
v -59.005516 0.000000 -24.440887
v -62.639927 0.000000 -12.459859
v -63.867115 0.000000 0.000003
v -62.639927 0.000000 12.459856
v -59.005524 0.000000 24.440884
v -53.103565 0.000000 35.482666
v -45.160870 0.000000 45.160870
v -35.482666 0.000000 53.103565
v -24.440891 0.000000 59.005516
v -12.459855 0.000000 62.639927
v 0.000006 0.000000 63.867115
v 12.459852 0.000000 62.639927
v 24.440886 0.000000 59.005516
v 35.482674 0.000000 53.103561
v 45.160866 0.000000 45.160873
v 53.103561 0.000000 35.482681
v 59.005516 0.000000 24.440897
v 62.639927 0.000000 12.459860
v 63.867115 0.000000 -0.000001
v 62.639927 0.000000 -12.459862
v 59.005516 0.000000 -24.440899
v 53.103573 0.000000 -35.482658
v 45.160877 0.000000 -45.160866
v 35.482674 0.000000 -53.103565
v 24.440886 0.000000 -59.005524
v 12.459851 0.000000 -62.639927
v 0.000000 36.822422 18.262587
v 3.562853 36.822422 17.911676
v 6.988788 36.822422 16.872427
v 10.146146 36.822422 15.184784
v 12.913593 36.822422 12.913598
v 15.184778 36.822422 10.146150
v 16.872423 36.822422 6.988791
v 17.911669 36.822422 3.562856
v 18.262581 36.822422 0.000002
v 17.911669 36.822426 -3.562851
v 16.872423 36.822426 -6.988785
v 15.184781 36.822426 -10.146144
v 12.913593 36.822426 -12.913595
v 10.146144 36.822426 -15.184781
v 6.988789 36.822426 -16.872427
v 3.562853 36.822426 -17.911673
v -0.000001 36.822426 -18.262581
v -3.562850 36.822426 -17.911673
v -6.988785 36.822426 -16.872427
v -10.146144 36.822426 -15.184781
v -12.913592 36.822426 -12.913595
v -15.184778 36.822426 -10.146149
v -16.872423 36.822426 -6.988788
v -17.911669 36.822426 -3.562852
v -18.262581 36.822422 0.000003
v -17.911669 36.822422 3.562857
v -16.872423 36.822422 6.988793
v -15.184784 36.822422 10.146147
v -12.913595 36.822422 12.913597
v -10.146144 36.822422 15.184784
v -6.988785 36.822422 16.872429
v -3.562850 36.822422 17.911673
v 0.000000 0.297257 0.000000
v 0.000000 36.822433 -18.262583
v 3.562854 36.822433 -17.911673
v 6.988789 36.822433 -16.872423
v 10.146149 36.822433 -15.184781
v 12.913597 36.822433 -12.913595
v 15.184781 36.822433 -10.146147
v 16.872427 36.822433 -6.988788
v 17.911673 36.822433 -3.562854
v 18.262583 36.822433 0.000001
v 17.911673 36.822433 3.562854
v 16.872427 36.822433 6.988788
v 15.184784 36.822433 10.146147
v 12.913597 36.822433 12.913598
v 10.146147 36.822433 15.184784
v 6.988790 36.822433 16.872429
v 3.562854 36.822433 17.911676
v -0.000001 36.822433 18.262583
v -3.562851 36.822433 17.911676
v -6.988787 36.822433 16.872429
v -10.146147 36.822433 15.184784
v -12.913595 36.822433 12.913598
v -15.184781 36.822433 10.146152
v -16.872427 36.822433 6.988791
v -17.911673 36.822433 3.562855
v -18.262583 36.822433 0.000000
v -17.911673 36.822433 -3.562854
v -16.872427 36.822433 -6.988791
v -15.184787 36.822433 -10.146144
v -12.913598 36.822433 -12.913593
v -10.146147 36.822433 -15.184781
v -6.988787 36.822433 -16.872427
v -3.562851 36.822433 -17.911669
v 0.000000 73.347595 0.000001
vt 0.885889 0.249461
vt 0.885451 0.253909
vt 0.879128 0.253909
vt 0.879687 0.248227
vt 0.892129 0.270031
vt 0.895584 0.272866
vt 0.892071 0.278124
vt 0.887658 0.274502
vt 0.856735 0.258357
vt 0.858032 0.262634
vt 0.852190 0.265054
vt 0.850533 0.259591
vt 0.887186 0.245184
vt 0.881344 0.242764
vt 0.889293 0.266576
vt 0.884036 0.270089
vt 0.856297 0.253909
vt 0.849974 0.253909
vt 0.889293 0.241242
vt 0.884036 0.237729
vt 0.887186 0.262634
vt 0.881344 0.265054
vt 0.856735 0.249461
vt 0.850533 0.248227
vt 0.892129 0.237787
vt 0.887658 0.233316
vt 0.885889 0.258357
vt 0.879687 0.259591
vt 0.858032 0.245184
vt 0.852190 0.242764
vt 0.895584 0.234952
vt 0.892071 0.229694
vt 0.860139 0.241242
vt 0.854882 0.237729
vt 0.899525 0.232845
vt 0.897106 0.227003
vt 0.862975 0.237787
vt 0.858503 0.233316
vt 0.903803 0.231548
vt 0.902569 0.225346
vt 0.866430 0.234952
vt 0.862917 0.229694
vt 0.908250 0.231109
vt 0.908250 0.224786
vt 0.870371 0.232845
vt 0.867952 0.227003
vt 0.874648 0.276271
vt 0.879096 0.276709
vt 0.879096 0.283032
vt 0.873415 0.282472
vt 0.874648 0.231548
vt 0.873415 0.225346
vt 0.870371 0.274973
vt 0.867952 0.280815
vt 0.879096 0.231109
vt 0.879096 0.224786
vt 0.866430 0.272866
vt 0.862917 0.278124
vt 0.903803 0.276271
vt 0.908250 0.276709
vt 0.908250 0.283032
vt 0.902569 0.282472
vt 0.862975 0.270031
vt 0.858503 0.274502
vt 0.899525 0.274973
vt 0.897106 0.280815
vt 0.860139 0.266576
vt 0.854882 0.270089
vt 0.119999 0.159493
vt 0.146878 0.132821
vt 0.122438 0.161745
vt 0.125065 0.163774
vt 0.127860 0.165566
vt 0.130801 0.167106
vt 0.133866 0.168382
vt 0.137030 0.169385
vt 0.140271 0.170107
vt 0.143562 0.170543
vt 0.146878 0.170688
vt 0.110239 0.059984
vt 0.147985 0.056960
vt 0.110649 0.063279
vt 0.111346 0.066525
vt 0.112324 0.069697
vt 0.113577 0.072771
vt 0.115094 0.075724
vt 0.116864 0.078533
vt 0.118873 0.081176
vt 0.121105 0.083632
vt 0.123545 0.085884
vt 0.126172 0.087913
vt 0.128967 0.089705
vt 0.131908 0.091245
vt 0.134972 0.092521
vt 0.138137 0.093524
vt 0.141377 0.094246
vt 0.144668 0.094682
vt 0.147985 0.094827
vt 0.110239 0.142386
vt 0.111218 0.145558
vt 0.112470 0.148632
vt 0.113987 0.151585
vt 0.115757 0.154394
vt 0.117766 0.157036
vt 0.063460 0.828594
vt 0.086846 0.795408
vt 0.066456 0.830514
vt 0.069609 0.832165
vt 0.072895 0.833534
vt 0.076288 0.834609
vt 0.079762 0.835383
vt 0.083290 0.835850
vt 0.086846 0.836006
vt 0.046378 0.886995
vt 0.085659 0.876741
vt 0.047427 0.890396
vt 0.048770 0.893692
vt 0.050396 0.896858
vt 0.052293 0.899869
vt 0.054447 0.902702
vt 0.056841 0.905336
vt 0.059457 0.907750
vt 0.062273 0.909926
vt 0.065270 0.911847
vt 0.068423 0.913498
vt 0.071708 0.914866
vt 0.075101 0.915942
vt 0.078575 0.916716
vt 0.082104 0.917183
vt 0.085659 0.917339
vt 0.046378 0.798650
vt 0.046817 0.802182
vt 0.047564 0.805662
vt 0.048613 0.809063
vt 0.049956 0.812359
vt 0.051583 0.815525
vt 0.053480 0.818536
vt 0.055634 0.821370
vt 0.058028 0.824004
vt 0.060643 0.826418
vn 0.0000 1.0000 0.0000
vn -0.0000 -0.4472 0.8944
vn -0.0000 -1.0000 -0.0000
vn 0.1745 -0.4472 0.8772
vn 0.3423 -0.4472 0.8263
vn 0.4969 -0.4472 0.7437
vn 0.6325 -0.4472 0.6325
vn 0.7437 -0.4472 0.4969
vn 0.8263 -0.4472 0.3423
vn 0.8772 -0.4472 0.1745
vn 0.8944 -0.4472 -0.0000
vn 0.8772 -0.4472 -0.1745
vn 0.8263 -0.4472 -0.3423
vn 0.7437 -0.4472 -0.4969
vn 0.6325 -0.4472 -0.6325
vn 0.4969 -0.4472 -0.7437
vn 0.3423 -0.4472 -0.8263
vn 0.1745 -0.4472 -0.8772
vn -0.0000 -0.4472 -0.8944
vn -0.1745 -0.4472 -0.8772
vn -0.3423 -0.4472 -0.8263
vn -0.4969 -0.4472 -0.7437
vn -0.6325 -0.4472 -0.6325
vn -0.7437 -0.4472 -0.4969
vn -0.8263 -0.4472 -0.3423
vn -0.8772 -0.4472 -0.1745
vn -0.8944 -0.4472 -0.0000
vn -0.8772 -0.4472 0.1745
vn -0.8263 -0.4472 0.3423
vn -0.7437 -0.4472 0.4969
vn -0.6325 -0.4472 0.6325
vn -0.4969 -0.4472 0.7437
vn -0.3423 -0.4472 0.8263
vn -0.1745 -0.4472 0.8772
vn -0.0000 0.4472 -0.8944
vn 0.1745 0.4472 -0.8772
vn 0.3423 0.4472 -0.8263
vn 0.4969 0.4472 -0.7437
vn 0.6325 0.4472 -0.6325
vn 0.7437 0.4472 -0.4969
vn 0.8263 0.4472 -0.3423
vn 0.8772 0.4472 -0.1745
vn 0.8944 0.4472 0.0000
vn 0.8772 0.4472 0.1745
vn 0.8263 0.4472 0.3423
vn 0.7437 0.4472 0.4969
vn 0.6325 0.4472 0.6325
vn 0.4969 0.4472 0.7437
vn 0.3423 0.4472 0.8263
vn 0.1745 0.4472 0.8772
vn -0.0000 0.4472 0.8944
vn -0.1745 0.4472 0.8772
vn -0.3423 0.4472 0.8263
vn -0.4969 0.4472 0.7437
vn -0.6325 0.4472 0.6325
vn -0.7437 0.4472 0.4969
vn -0.8263 0.4472 0.3423
vn -0.8772 0.4472 0.1745
vn -0.8944 0.4472 -0.0000
vn -0.8772 0.4472 -0.1745
vn -0.8263 0.4472 -0.3423
vn -0.7437 0.4472 -0.4969
vn -0.6325 0.4472 -0.6325
vn -0.4969 0.4472 -0.7437
vn -0.3423 0.4472 -0.8263
vn -0.1745 0.4472 -0.8772
usemtl None
s 1
f 2/1/1 1/2/1 33/3/1 34/4/1
f 29/5/1 28/6/1 60/7/1 61/8/1
f 16/9/1 15/10/1 47/11/1 48/12/1
f 3/13/1 2/1/1 34/4/1 35/14/1
f 30/15/1 29/5/1 61/8/1 62/16/1
f 17/17/1 16/9/1 48/12/1 49/18/1
f 4/19/1 3/13/1 35/14/1 36/20/1
f 31/21/1 30/15/1 62/16/1 63/22/1
f 18/23/1 17/17/1 49/18/1 50/24/1
f 5/25/1 4/19/1 36/20/1 37/26/1
f 32/27/1 31/21/1 63/22/1 64/28/1
f 19/29/1 18/23/1 50/24/1 51/30/1
f 6/31/1 5/25/1 37/26/1 38/32/1
f 1/2/1 32/27/1 64/28/1 33/3/1
f 20/33/1 19/29/1 51/30/1 52/34/1
f 7/35/1 6/31/1 38/32/1 39/36/1
f 21/37/1 20/33/1 52/34/1 53/38/1
f 8/39/1 7/35/1 39/36/1 40/40/1
f 22/41/1 21/37/1 53/38/1 54/42/1
f 9/43/1 8/39/1 40/40/1 41/44/1
f 23/45/1 22/41/1 54/42/1 55/46/1
f 10/47/1 9/48/1 41/49/1 42/50/1
f 24/51/1 23/45/1 55/46/1 56/52/1
f 11/53/1 10/47/1 42/50/1 43/54/1
f 25/55/1 24/51/1 56/52/1 57/56/1
f 12/57/1 11/53/1 43/54/1 44/58/1
f 26/59/1 25/60/1 57/61/1 58/62/1
f 13/63/1 12/57/1 44/58/1 45/64/1
f 27/65/1 26/59/1 58/62/1 59/66/1
f 14/67/1 13/63/1 45/64/1 46/68/1
f 28/6/1 27/65/1 59/66/1 60/7/1
f 15/10/1 14/67/1 46/68/1 47/11/1
f 65/69/2 97/70/3 66/71/4
f 66/71/4 97/70/3 67/72/5
f 67/72/5 97/70/3 68/73/6
f 68/73/6 97/70/3 69/74/7
f 69/74/7 97/70/3 70/75/8
f 70/75/8 97/70/3 71/76/9
f 71/76/9 97/70/3 72/77/10
f 72/77/10 97/70/3 73/78/11
f 73/78/11 97/70/3 74/79/12
f 74/80/12 97/81/3 75/82/13
f 75/82/13 97/81/3 76/83/14
f 76/83/14 97/81/3 77/84/15
f 77/84/15 97/81/3 78/85/16
f 78/85/16 97/81/3 79/86/17
f 79/86/17 97/81/3 80/87/18
f 80/87/18 97/81/3 81/88/19
f 81/88/19 97/81/3 82/89/20
f 82/89/20 97/81/3 83/90/21
f 83/90/21 97/81/3 84/91/22
f 84/91/22 97/81/3 85/92/23
f 85/92/23 97/81/3 86/93/24
f 86/93/24 97/81/3 87/94/25
f 87/94/25 97/81/3 88/95/26
f 88/95/26 97/81/3 89/96/27
f 89/96/27 97/81/3 90/97/28
f 90/97/28 97/81/3 91/98/29
f 91/99/29 97/70/3 92/100/30
f 92/100/30 97/70/3 93/101/31
f 93/101/31 97/70/3 94/102/32
f 94/102/32 97/70/3 95/103/33
f 95/103/33 97/70/3 96/104/34
f 96/104/34 97/70/3 65/69/2
f 98/105/35 130/106/1 99/107/36
f 99/107/36 130/106/1 100/108/37
f 100/108/37 130/106/1 101/109/38
f 101/109/38 130/106/1 102/110/39
f 102/110/39 130/106/1 103/111/40
f 103/111/40 130/106/1 104/112/41
f 104/112/41 130/106/1 105/113/42
f 105/114/42 130/115/1 106/116/43
f 106/116/43 130/115/1 107/117/44
f 107/117/44 130/115/1 108/118/45
f 108/118/45 130/115/1 109/119/46
f 109/119/46 130/115/1 110/120/47
f 110/120/47 130/115/1 111/121/48
f 111/121/48 130/115/1 112/122/49
f 112/122/49 130/115/1 113/123/50
f 113/123/50 130/115/1 114/124/51
f 114/124/51 130/115/1 115/125/52
f 115/125/52 130/115/1 116/126/53
f 116/126/53 130/115/1 117/127/54
f 117/127/54 130/115/1 118/128/55
f 118/128/55 130/115/1 119/129/56
f 119/129/56 130/115/1 120/130/57
f 120/131/57 130/106/1 121/132/58
f 121/132/58 130/106/1 122/133/59
f 122/133/59 130/106/1 123/134/60
f 123/134/60 130/106/1 124/135/61
f 124/135/61 130/106/1 125/136/62
f 125/136/62 130/106/1 126/137/63
f 126/137/63 130/106/1 127/138/64
f 127/138/64 130/106/1 128/139/65
f 128/139/65 130/106/1 129/140/66
f 129/140/66 130/106/1 98/105/35
